<svg width="238" height="232" viewBox="0 0 238 232" fill="none" xmlns="http://www.w3.org/2000/svg">
<path d="M51.7852 39.3506C58.5354 37.5736 66.9914 40.6175 70.3242 48.0254L89.4365 86.0215L89.4424 86.0332L89.4492 86.0459C92.6409 92.4899 90.7811 100.383 85.9512 104.878L85.9521 104.879L70.2285 119.624C82.6124 140.929 101.3 157.697 123.714 167.63L136.396 150.219C140.203 144.949 147.627 142.145 154.317 144.411L154.636 144.523L154.648 144.528L154.662 144.533L194.342 159.264C202.051 161.76 205.978 169.859 205.02 176.748L205.009 176.825L204.995 176.901L198.509 214.091C197.424 221.509 190.685 226.79 183.564 227.208C90.2489 232.68 9.95091 160.605 4.52637 66.6436C4.11597 59.5349 8.49731 52.1612 15.7334 50.1992L51.6338 39.3936L51.709 39.3711L51.7852 39.3506ZM118.137 80.5488C128.746 78.8999 139.255 81.8758 146.944 88.7705C154.849 95.8585 159.005 106.002 158.61 116.802L158.606 116.906L158.598 117.011C158.385 119.564 157.206 122.335 155.509 124.257C153.174 126.899 149.712 128.524 145.853 128.397L145.807 128.396L145.762 128.394C139.244 128.048 134.006 122.537 134.295 115.54C134.433 112.197 133.264 109.117 130.818 106.924C128.651 104.981 125.519 104.136 122.216 104.666C115.269 105.78 109.256 101.117 108.172 94.708L108.149 94.5801L108.136 94.4502C107.444 88.178 111.373 81.7096 118.066 80.5605L118.137 80.5488ZM121.534 42.1934C141.068 39.1108 160.473 44.5225 175.254 57.7764C190.005 71.0043 197.857 89.9944 196.827 109.73L196.812 110.031L196.757 110.326C196.329 112.608 195.513 115.096 193.518 117.354C191.063 120.133 187.76 121.361 184.138 121.258C177.14 121.236 172.241 115.245 172.541 108.862C173.026 96.1261 167.855 84.1825 158.917 76.168C149.757 67.9541 137.644 64.377 125.161 66.3369L125.063 66.3525L124.965 66.3643C118.683 67.0677 112.171 63.0485 111.322 56.0068C110.304 49.556 114.65 43.2961 121.523 42.1943L121.534 42.1934ZM123.131 5.72656C151.542 1.24667 179.806 9.08721 201.663 28.6865C223.28 48.0712 234.784 75.8912 233.385 104.69V104.698L233.384 104.706C233.239 107.471 232.42 110.155 230.521 112.304C228.187 114.946 224.725 116.571 220.866 116.444L220.82 116.443L220.775 116.44C214.314 116.098 209.13 110.688 209.094 104.035V103.935L209.098 103.834C209.957 81.9853 201.311 60.9844 185.537 46.8398C169.537 32.4921 148.091 26.4927 126.675 29.8828L126.573 29.8984L126.472 29.9102C119.831 30.6539 113.925 26.0416 112.85 19.6846L112.828 19.5566L112.813 19.4268C112.124 13.1764 116.063 6.58192 123.131 5.72656Z" stroke="#282828" stroke-width="9"/>
</svg>
