<svg width="1765" height="147" viewBox="0 0 1765 147" fill="none" xmlns="http://www.w3.org/2000/svg">
<path d="M0 144.336V127.246L15.1367 124.316V22.2656L0 19.3359V2.14844H15.1367H44.043L105.957 100.781L106.543 100.684V22.2656L88.3789 19.3359V2.14844H132.031H147.266V19.3359L132.031 22.2656V144.336H104.492L41.2109 46.6797L40.625 46.7773V124.316L58.8867 127.246V144.336H0ZM220.754 146.387C206.626 146.387 194.582 143.457 184.621 137.598C174.66 131.738 167.01 123.6 161.672 113.184C156.398 102.767 153.762 90.6901 153.762 76.9531V72.0703C153.762 57.8776 156.398 45.3776 161.672 34.5703C166.945 23.763 174.4 15.332 184.035 9.27734C193.736 3.15755 205.194 0.0976562 218.41 0.0976562C228.632 0.0976562 238.234 1.4974 247.219 4.29688C256.203 7.09635 264.016 11.2956 270.656 16.8945V48.4375H249.562L245.559 29.3945C243.02 27.181 239.602 25.4232 235.305 24.1211C231.008 22.7539 226.092 22.0703 220.559 22.0703C212.616 22.0703 205.747 24.1862 199.953 28.418C194.224 32.5846 189.829 38.4115 186.77 45.8984C183.71 53.3203 182.18 61.9792 182.18 71.875V76.9531C182.18 86.5885 183.677 94.987 186.672 102.148C189.732 109.245 194.191 114.746 200.051 118.652C205.91 122.559 213.104 124.512 221.633 124.512C226.646 124.512 231.236 124.056 235.402 123.145C239.634 122.168 243.117 120.996 245.852 119.629V95.5078L225.539 93.9453V73.9258H274.465V131.445C268.15 135.938 260.533 139.551 251.613 142.285C242.759 145.02 232.473 146.387 220.754 146.387ZM285.355 144.336V127.246L295.512 125.781L340.727 2.14844H369.926L414.848 125.781L425.004 127.246V144.336H376.566V127.246L386.43 125.488L380.18 105.957H330.18L323.93 125.488L333.793 127.246V144.336H285.355ZM336.918 84.9609H373.441L356.84 36.2305L355.473 31.9336H354.887L353.422 36.5234L336.918 84.9609ZM517.195 109.473L502.449 92.5781L572.078 20.8008L572.273 20.5078L558.211 19.3359V2.14844H616.707V19.3359L603.328 21.9727L517.195 109.473ZM479.5 144.336V127.246L494.637 124.316V22.2656L479.5 19.3359V2.14844H537.605V19.3359L523.152 22.2656V124.316L537.605 127.246V144.336H479.5ZM561.336 144.336V127.246L574.617 126.074H574.715L538.582 76.2695L557.43 57.4219L607.82 124.805L621.785 127.246V144.336H561.336ZM628.477 144.336V127.246L643.613 124.316V22.2656L628.477 19.3359V2.14844H687.266V19.3359L672.129 22.2656V124.316L687.266 127.246V144.336H628.477ZM696.203 144.336V127.246L711.34 124.316V22.2656L696.203 19.3359V2.14844H711.34H753.527L792.297 101.27H792.883L830.383 2.14844H887.805V19.3359L872.57 22.2656V124.316L887.805 127.246V144.336H828.918V127.246L844.836 124.316V97.0703L845.324 32.9102L844.738 32.8125L802.258 142.383H780.676L737.219 33.6914L736.633 33.7891L738.293 94.1406V124.316L755.09 127.246V144.336H696.203ZM942.984 144.336V127.246L958.121 124.316V22.2656L942.984 19.3359V2.14844H958.121H986.637H1003.82V19.3359L986.637 22.2656V122.461H1026.77L1028.14 101.66H1049.92V144.336H942.984ZM1058.17 144.336V127.246L1073.31 124.316V22.2656L1058.17 19.3359V2.14844H1168.52V40.5273H1146.65L1145.38 24.1211H1101.82V59.8633H1149.97V81.8359H1101.82V122.461H1147.72L1148.99 105.469H1170.67V144.336H1058.17ZM1288.94 146.387C1278.46 146.387 1268.92 145.215 1260.32 142.871C1251.73 140.527 1243.27 136.458 1234.93 130.664V96.2891H1257L1260.03 116.504C1262.96 118.978 1267 120.996 1272.14 122.559C1277.28 124.056 1282.88 124.805 1288.94 124.805C1294.08 124.805 1298.41 124.089 1301.93 122.656C1305.51 121.224 1308.21 119.206 1310.03 116.602C1311.92 113.932 1312.86 110.807 1312.86 107.227C1312.86 103.841 1312.02 100.846 1310.32 98.2422C1308.7 95.5729 1305.96 93.1641 1302.12 91.0156C1298.35 88.8021 1293.2 86.6862 1286.69 84.668C1275.43 81.3477 1266.09 77.7344 1258.66 73.8281C1251.31 69.8568 1245.77 65.1367 1242.06 59.668C1238.42 54.1341 1236.59 47.4935 1236.59 39.7461C1236.59 32.0638 1238.71 25.293 1242.94 19.4336C1247.24 13.5091 1253.16 8.85417 1260.71 5.46875C1268.27 2.08333 1276.99 0.325521 1286.89 0.195312C1297.82 0.0651042 1307.49 1.36719 1315.89 4.10156C1324.35 6.83594 1331.65 10.6445 1337.77 15.5273V47.5586H1316.38L1312.67 28.0273C1310.19 26.4648 1306.84 25.0977 1302.61 23.9258C1298.44 22.7539 1293.69 22.168 1288.35 22.168C1283.79 22.168 1279.76 22.8516 1276.24 24.2188C1272.79 25.5859 1270.06 27.5716 1268.04 30.1758C1266.02 32.7799 1265.01 35.9375 1265.01 39.6484C1265.01 42.8385 1265.89 45.638 1267.65 48.0469C1269.41 50.3906 1272.34 52.6367 1276.44 54.7852C1280.6 56.8685 1286.33 59.1146 1293.62 61.5234C1309.32 65.8854 1321.2 71.6471 1329.27 78.8086C1337.41 85.9701 1341.48 95.3776 1341.48 107.031C1341.48 115.104 1339.3 122.103 1334.93 128.027C1330.57 133.887 1324.45 138.411 1316.57 141.602C1308.7 144.792 1299.48 146.387 1288.94 146.387ZM1350.8 144.336V127.246L1365.94 124.316V22.2656L1350.8 19.3359V2.14844H1409.69V19.3359L1394.46 22.2656V63.2812H1452.46V22.2656L1437.23 19.3359V2.14844H1452.46H1480.88H1496.12V19.3359L1480.88 22.2656V124.316L1496.12 127.246V144.336H1437.23V127.246L1452.46 124.316V85.2539H1394.46V124.316L1409.69 127.246V144.336H1350.8ZM1570.19 146.387C1560.62 146.387 1551.9 144.596 1544.02 141.016C1536.14 137.435 1529.34 132.422 1523.61 125.977C1517.95 119.466 1513.58 111.849 1510.52 103.125C1507.46 94.3359 1505.93 84.7331 1505.93 74.3164V72.168C1505.93 61.8164 1507.46 52.2786 1510.52 43.5547C1513.58 34.7656 1517.95 27.1159 1523.61 20.6055C1529.27 14.0951 1536.04 9.04948 1543.92 5.46875C1551.8 1.88802 1560.52 0.0976562 1570.09 0.0976562C1579.73 0.0976562 1588.52 1.88802 1596.46 5.46875C1604.4 9.04948 1611.24 14.0951 1616.97 20.6055C1622.7 27.1159 1627.09 34.7656 1630.15 43.5547C1633.28 52.2786 1634.84 61.8164 1634.84 72.168V74.3164C1634.84 84.7331 1633.28 94.3359 1630.15 103.125C1627.09 111.849 1622.7 119.466 1616.97 125.977C1611.24 132.422 1604.4 137.435 1596.46 141.016C1588.58 144.596 1579.83 146.387 1570.19 146.387ZM1570.19 124.219C1578.26 124.219 1584.97 122.135 1590.31 117.969C1595.65 113.802 1599.65 107.975 1602.32 100.488C1605.05 93.0013 1606.42 84.2773 1606.42 74.3164V71.9727C1606.42 62.1419 1605.05 53.5156 1602.32 46.0938C1599.59 38.6068 1595.52 32.7799 1590.11 28.6133C1584.77 24.4466 1578.1 22.3633 1570.09 22.3633C1562.15 22.3633 1555.54 24.4466 1550.27 28.6133C1545 32.7148 1541.02 38.4766 1538.36 45.8984C1535.75 53.3203 1534.45 62.0117 1534.45 71.9727V74.3164C1534.45 84.2773 1535.75 93.0013 1538.36 100.488C1541.02 107.975 1545 113.802 1550.27 117.969C1555.61 122.135 1562.25 124.219 1570.19 124.219ZM1644.27 144.336V127.246L1659.4 124.316V22.2656L1644.27 19.3359V2.14844H1659.4H1711.94C1722.81 2.14844 1732.19 4.06901 1740.07 7.91016C1747.94 11.6862 1754 16.9922 1758.23 23.8281C1762.46 30.599 1764.58 38.5091 1764.58 47.5586C1764.58 56.6081 1762.46 64.5508 1758.23 71.3867C1754 78.1576 1747.94 83.431 1740.07 87.207C1732.19 90.918 1722.81 92.7734 1711.94 92.7734H1687.92V124.316L1703.15 127.246V144.336H1644.27ZM1687.92 70.8008H1711.94C1719.88 70.8008 1725.87 68.6523 1729.91 64.3555C1734.01 59.9935 1736.06 54.4596 1736.06 47.7539C1736.06 40.918 1734.01 35.2865 1729.91 30.8594C1725.87 26.3672 1719.88 24.1211 1711.94 24.1211H1687.92V70.8008Z" fill="#F41A22"/>
</svg>
