<svg xmlns="http://www.w3.org/2000/svg" xmlns:xlink="http://www.w3.org/1999/xlink" viewBox="0 0 622.41 380.57"><defs><style>.cls-1,.cls-29,.cls-31,.cls-4,.cls-44,.cls-45,.cls-49,.cls-53,.cls-57,.cls-63,.cls-68,.cls-84{fill:none;}.cls-1{stroke:#cedbed;stroke-width:2.07px;}.cls-1,.cls-29,.cls-31,.cls-4,.cls-42,.cls-44,.cls-45,.cls-49,.cls-53,.cls-63,.cls-68,.cls-84{stroke-miterlimit:10;}.cls-2{fill:#cedbed;}.cls-3{fill:url(#linear-gradient);}.cls-29,.cls-4{stroke:#1656bd;}.cls-4{stroke-width:0.94px;}.cls-5{fill:url(#linear-gradient-2);}.cls-6{fill:url(#linear-gradient-3);}.cls-7{fill:url(#linear-gradient-4);}.cls-61,.cls-8{opacity:0.81;}.cls-8{fill:url(#linear-gradient-5);}.cls-9{fill:url(#linear-gradient-6);}.cls-10{fill:url(#linear-gradient-7);}.cls-11{fill:url(#linear-gradient-8);}.cls-12,.cls-14{opacity:0.63;}.cls-12{fill:url(#linear-gradient-9);}.cls-13{fill:url(#linear-gradient-10);}.cls-14{fill:url(#linear-gradient-11);}.cls-15{fill:url(#linear-gradient-12);}.cls-16,.cls-20{fill:#fff;}.cls-17{fill:url(#linear-gradient-13);}.cls-18{fill:#ff6026;}.cls-19,.cls-42{fill:#ffa526;}.cls-20{font-size:52.85px;font-family:OpenSans-Bold, Open Sans;font-weight:700;letter-spacing:0.1em;}.cls-21{opacity:0.22;}.cls-22{fill:url(#linear-gradient-14);}.cls-23{fill:#ff9d45;}.cls-24,.cls-69,.cls-81{opacity:0.45;}.cls-24{fill:url(#linear-gradient-15);}.cls-25{fill:#f04f4f;}.cls-26{fill:url(#linear-gradient-16);}.cls-27{fill:#0c3069;}.cls-28{fill:#1656bd;}.cls-29,.cls-31{stroke-width:0.97px;}.cls-30{fill:#236fe8;}.cls-31,.cls-42,.cls-45,.cls-57{stroke:#0c3069;}.cls-32{fill:url(#linear-gradient-17);}.cls-33{fill:url(#linear-gradient-18);}.cls-34{opacity:0.56;}.cls-35{fill:url(#linear-gradient-19);}.cls-36{fill:url(#linear-gradient-20);}.cls-37{fill:url(#linear-gradient-21);}.cls-38{fill:url(#linear-gradient-22);}.cls-39{fill:#09244f;}.cls-40,.cls-74,.cls-75{opacity:0.43;}.cls-40{fill:url(#linear-gradient-23);}.cls-41{fill:#0f3d85;}.cls-42{stroke-width:0.33px;}.cls-43{fill:#a1c1ed;}.cls-44{stroke:#a1c1ed;}.cls-44,.cls-45,.cls-49,.cls-53,.cls-57{stroke-width:0.75px;}.cls-46{fill:url(#linear-gradient-24);}.cls-47{fill:#ff6d6d;}.cls-48{fill:url(#linear-gradient-25);}.cls-49{stroke:#d92727;}.cls-50{fill:url(#linear-gradient-26);}.cls-51{fill:#2e4469;}.cls-52,.cls-54,.cls-64{opacity:0.68;}.cls-52{fill:url(#linear-gradient-27);}.cls-53{stroke:#1e2d45;}.cls-54{fill:url(#linear-gradient-28);}.cls-55{fill:url(#linear-gradient-29);}.cls-56{fill:url(#linear-gradient-30);}.cls-57{stroke-linecap:round;stroke-linejoin:round;}.cls-58{fill:url(#linear-gradient-31);}.cls-59{fill:url(#linear-gradient-32);}.cls-60{fill:url(#linear-gradient-33);}.cls-61{fill:url(#linear-gradient-34);}.cls-62{fill:#960a43;}.cls-63{stroke:#d90f60;}.cls-63,.cls-68{stroke-width:0.73px;}.cls-65{fill:url(#linear-gradient-35);}.cls-66{fill:url(#linear-gradient-36);}.cls-67{fill:#d90f60;}.cls-68{stroke:#380419;}.cls-70{fill:url(#linear-gradient-37);}.cls-71{fill:url(#linear-gradient-38);}.cls-72{fill:url(#linear-gradient-39);}.cls-73{fill:url(#linear-gradient-40);}.cls-74{fill:url(#linear-gradient-41);}.cls-76{fill:url(#linear-gradient-42);}.cls-77{fill:url(#linear-gradient-43);}.cls-78{fill:url(#linear-gradient-44);}.cls-79{fill:#cc5050;}.cls-80{fill:url(#linear-gradient-45);}.cls-81{fill:url(#linear-gradient-46);}.cls-82{fill:url(#linear-gradient-47);}.cls-83{fill:#f7dc42;}.cls-84{stroke:#f04f4f;stroke-width:0.72px;}.cls-85{fill:url(#linear-gradient-48);}</style><linearGradient id="linear-gradient" x1="43.12" y1="193.98" x2="85.62" y2="286.48" gradientUnits="userSpaceOnUse"><stop offset="0" stop-color="#6ab883"/><stop offset="1" stop-color="#dbb883"/></linearGradient><linearGradient id="linear-gradient-2" x1="100.06" y1="150.87" x2="117.56" y2="229.37" xlink:href="#linear-gradient"/><linearGradient id="linear-gradient-3" x1="50.33" y1="310.9" x2="82.79" y2="310.9" xlink:href="#linear-gradient"/><linearGradient id="linear-gradient-4" x1="553.19" y1="315.83" x2="593.08" y2="315.83" xlink:href="#linear-gradient"/><linearGradient id="linear-gradient-5" x1="216.56" y1="36.07" x2="216.56" y2="270.67" gradientUnits="userSpaceOnUse"><stop offset="0" stop-color="#1656bd"/><stop offset="1" stop-color="#a1c1ed" stop-opacity="0"/></linearGradient><linearGradient id="linear-gradient-6" x1="439.25" y1="98.07" x2="439.25" y2="279.14" xlink:href="#linear-gradient-5"/><linearGradient id="linear-gradient-7" x1="589.64" y1="220.57" x2="545.14" y2="317.57" xlink:href="#linear-gradient"/><linearGradient id="linear-gradient-8" x1="525.18" y1="251.09" x2="496.18" y2="389.59" xlink:href="#linear-gradient"/><linearGradient id="linear-gradient-9" x1="487.26" y1="372.26" x2="477.74" y2="227.18" gradientUnits="userSpaceOnUse"><stop offset="0.16" stop-color="#187d38"/><stop offset="1" stop-color="#187d38" stop-opacity="0"/></linearGradient><linearGradient id="linear-gradient-10" x1="183.21" y1="176.04" x2="183.21" y2="404.35" xlink:href="#linear-gradient"/><linearGradient id="linear-gradient-11" x1="254.9" y1="406.57" x2="254.9" y2="185.02" xlink:href="#linear-gradient-9"/><linearGradient id="linear-gradient-12" x1="378.25" y1="191.41" x2="378.25" y2="386.3" xlink:href="#linear-gradient"/><linearGradient id="linear-gradient-13" x1="322.29" y1="93.74" x2="322.29" y2="165.24" gradientUnits="userSpaceOnUse"><stop offset="0.06" stop-color="#ff6026"/><stop offset="0.2" stop-color="#ff6026" stop-opacity="0.78"/><stop offset="0.36" stop-color="#ff6026" stop-opacity="0.55"/><stop offset="0.52" stop-color="#ff6026" stop-opacity="0.35"/><stop offset="0.66" stop-color="#ff6026" stop-opacity="0.2"/><stop offset="0.79" stop-color="#ff6026" stop-opacity="0.09"/><stop offset="0.91" stop-color="#ff6026" stop-opacity="0.02"/><stop offset="1" stop-color="#ff6026" stop-opacity="0"/></linearGradient><linearGradient id="linear-gradient-14" x1="161.21" y1="90.07" x2="156.21" y2="143.32" gradientUnits="userSpaceOnUse"><stop offset="0" stop-opacity="0.73"/><stop offset="0.24"/><stop offset="0.93" stop-opacity="0"/></linearGradient><linearGradient id="linear-gradient-15" x1="504.91" y1="127.66" x2="503.91" y2="245.99" gradientUnits="userSpaceOnUse"><stop offset="0"/><stop offset="0.93" stop-opacity="0"/></linearGradient><linearGradient id="linear-gradient-16" x1="165.4" y1="181.48" x2="165.4" y2="218.61" xlink:href="#linear-gradient-15"/><linearGradient id="linear-gradient-17" x1="215.9" y1="281.77" x2="156" y2="281.77" gradientTransform="translate(367.91 563.55) rotate(-180)" xlink:href="#linear-gradient-15"/><linearGradient id="linear-gradient-18" x1="215.9" y1="325.73" x2="156" y2="325.73" gradientTransform="translate(367.91 651.46) rotate(-180)" xlink:href="#linear-gradient-15"/><linearGradient id="linear-gradient-19" x1="162.3" y1="232.85" x2="162.3" y2="447.46" xlink:href="#linear-gradient-15"/><linearGradient id="linear-gradient-20" x1="149.41" y1="232.85" x2="149.41" y2="447.46" xlink:href="#linear-gradient-15"/><linearGradient id="linear-gradient-21" x1="136.52" y1="232.85" x2="136.52" y2="447.46" xlink:href="#linear-gradient-15"/><linearGradient id="linear-gradient-22" x1="123.63" y1="232.85" x2="123.63" y2="447.46" xlink:href="#linear-gradient-15"/><linearGradient id="linear-gradient-23" x1="159.36" y1="229.88" x2="133.53" y2="300.55" xlink:href="#linear-gradient-15"/><linearGradient id="linear-gradient-24" x1="340.75" y1="36.08" x2="354.58" y2="64.25" xlink:href="#linear-gradient-13"/><linearGradient id="linear-gradient-25" x1="266.07" y1="255.98" x2="267.19" y2="269.98" gradientUnits="userSpaceOnUse"><stop offset="0" stop-color="#f04f4f"/><stop offset="0.15" stop-color="#f04f4f" stop-opacity="0.99"/><stop offset="0.28" stop-color="#f04f4f" stop-opacity="0.94"/><stop offset="0.4" stop-color="#f04f4f" stop-opacity="0.86"/><stop offset="0.53" stop-color="#f04f4f" stop-opacity="0.76"/><stop offset="0.65" stop-color="#f04f4f" stop-opacity="0.62"/><stop offset="0.76" stop-color="#f04f4f" stop-opacity="0.45"/><stop offset="0.88" stop-color="#f04f4f" stop-opacity="0.25"/><stop offset="0.99" stop-color="#f04f4f" stop-opacity="0.02"/><stop offset="1" stop-color="#f04f4f" stop-opacity="0"/></linearGradient><linearGradient id="linear-gradient-26" x1="218.09" y1="262.02" x2="241.53" y2="262.02" xlink:href="#linear-gradient-25"/><linearGradient id="linear-gradient-27" x1="235.41" y1="244.5" x2="271.03" y2="244.5" xlink:href="#linear-gradient-15"/><linearGradient id="linear-gradient-28" x1="247.77" y1="197.44" x2="248.6" y2="240.11" xlink:href="#linear-gradient-15"/><linearGradient id="linear-gradient-29" x1="265.75" y1="168.25" x2="283.75" y2="204.59" xlink:href="#linear-gradient-25"/><linearGradient id="linear-gradient-30" x1="245.66" y1="151.45" x2="276.93" y2="151.45" gradientUnits="userSpaceOnUse"><stop offset="0" stop-color="#0c3069"/><stop offset="1" stop-color="#0c3069" stop-opacity="0"/></linearGradient><linearGradient id="linear-gradient-31" x1="227.57" y1="121.04" x2="240.87" y2="121.04" xlink:href="#linear-gradient-25"/><linearGradient id="linear-gradient-32" x1="212.61" y1="153.45" x2="197.21" y2="168.11" xlink:href="#linear-gradient-25"/><linearGradient id="linear-gradient-33" x1="219.55" y1="158.31" x2="229.89" y2="189.97" xlink:href="#linear-gradient-30"/><linearGradient id="linear-gradient-34" x1="342.21" y1="342.74" x2="342.21" y2="376.41" xlink:href="#linear-gradient-5"/><linearGradient id="linear-gradient-35" x1="375.33" y1="299.71" x2="351.33" y2="299.71" xlink:href="#linear-gradient-15"/><linearGradient id="linear-gradient-36" x1="375.33" y1="332.58" x2="351.33" y2="332.58" xlink:href="#linear-gradient-15"/><linearGradient id="linear-gradient-37" x1="385.23" y1="265.82" x2="385.23" y2="389.4" xlink:href="#linear-gradient-15"/><linearGradient id="linear-gradient-38" x1="394.87" y1="265.82" x2="394.87" y2="389.4" xlink:href="#linear-gradient-15"/><linearGradient id="linear-gradient-39" x1="404.51" y1="265.82" x2="404.51" y2="389.4" xlink:href="#linear-gradient-15"/><linearGradient id="linear-gradient-40" x1="414.15" y1="265.82" x2="414.15" y2="389.4" xlink:href="#linear-gradient-15"/><linearGradient id="linear-gradient-41" x1="393.79" y1="268.07" x2="393.79" y2="321.07" xlink:href="#linear-gradient-15"/><linearGradient id="linear-gradient-42" x1="371.47" y1="190.7" x2="371.47" y2="232.59" xlink:href="#linear-gradient-15"/><linearGradient id="linear-gradient-43" x1="392.25" y1="190.7" x2="392.25" y2="232.59" xlink:href="#linear-gradient-15"/><linearGradient id="linear-gradient-44" x1="454.21" y1="286.43" x2="476.57" y2="286.43" xlink:href="#linear-gradient-25"/><linearGradient id="linear-gradient-45" x1="402.16" y1="265.71" x2="432.27" y2="265.71" xlink:href="#linear-gradient-25"/><linearGradient id="linear-gradient-46" x1="374.88" y1="251.85" x2="412.5" y2="251.85" xlink:href="#linear-gradient-15"/><linearGradient id="linear-gradient-47" x1="445.63" y1="214.26" x2="455.78" y2="214.26" xlink:href="#linear-gradient-25"/><linearGradient id="linear-gradient-48" x1="411.06" y1="230.23" x2="428.5" y2="230.23" xlink:href="#linear-gradient-25"/></defs><g id="Layer_2" data-name="Layer 2"><g id="OBJECTS"><path class="cls-1" d="M565.81,109.18a101.8,101.8,0,0,1,19.65,13.56c19,16.77,31.76,41.69,35.93,70.18"/><path class="cls-1" d="M11.13,354.74C-3.14,326.76.9,303.9,4.22,285.16c.71-4,1.37-7.74,1.86-11.38"/><path class="cls-1" d="M547,107.47c12.46,4.46,24.23,10.7,34.5,19.77,17.94,15.83,30,39.46,34,66.55"/><path class="cls-1" d="M17.91,354.74c-15.06-27.4-11.21-49.17-7.78-68.53,1.73-9.74,3.29-18.6,2.6-27.92"/><path class="cls-1" d="M529.89,108.63c17.42,4.31,34.05,11.12,47.63,23.1,18.49,16.33,28.38,39.38,31.86,62"/><path class="cls-1" d="M24.82,354.74c-16-26.91-12.31-47.53-8.78-67.49,2.65-15,5.15-29.09-.83-46"/><path class="cls-2" d="M31.87,354.74h574a116.34,116.34,0,0,0-11-45c-11-23.1-12-30.82,2-58s11.37-84.9-23.32-115.52-91-25.55-129.86-35.08-163.16-72.87-193-84.7S159.37,2.24,120.49,55.61c-17.22,23.64-37.7,62.71-70.16,80.74C12,157.61,5.87,197,20.87,239.28S1.87,307.87,31.87,354.74Z"/><path class="cls-3" d="M84.05,286.57a124.54,124.54,0,0,1,3.38-28.95c6.67-25.91-5.66-56.34-33.16-40.34-16.11,9.37-17.67,32.65-4.84,48.8C60.85,280.45,84.05,286.57,84.05,286.57Z"/><path class="cls-4" d="M60.85,231.71s17.5,40,28.75,68.74"/><polyline class="cls-4" points="81.93 238.95 79.27 251.95 75.93 243.45"/><line class="cls-4" x1="79.27" y1="251.95" x2="79.64" y2="275.84"/><polyline class="cls-4" points="75.02 264.79 64.6 254.28 55.77 252.45"/><line class="cls-4" x1="62.1" y1="248.45" x2="64.6" y2="254.28"/><line class="cls-4" x1="67.18" y1="222.78" x2="66.8" y2="245.45"/><path class="cls-5" d="M117.13,221.1S102.47,214.28,97,203.36s-4.5-28.63,7.5-33.14,19.24,7.48,19,18.81C123.24,199.21,117.13,221.1,117.13,221.1Z"/><path class="cls-4" d="M107.79,180.93s7.5,33,13.17,56.06"/><line class="cls-4" x1="111.47" y1="174.97" x2="109.97" y2="190.41"/><polyline class="cls-4" points="98.34 192.95 104.47 196.95 113.87 207.24"/><line class="cls-4" x1="102.72" y1="187.83" x2="104.47" y2="196.95"/><line class="cls-4" x1="117.59" y1="196.33" x2="114.99" y2="212"/><path class="cls-6" d="M54.09,297.57c5.08-6,14.13-4.74,20.55,2.52s8.15,28,8.15,28-17.49-1-26.67-8.22S50.57,301.71,54.09,297.57Z"/><path class="cls-4" d="M90.79,336.23s-23-23.56-31.19-31.93"/><polyline class="cls-4" points="66.97 303.27 71.16 308.47 75.2 320.26"/><line class="cls-4" x1="71.31" y1="303.62" x2="71.16" y2="308.47"/><path class="cls-4" d="M66.77,311.63s-3.56.81-10.54-1.46"/><path class="cls-7" d="M592.77,310.63c-1.72-7.65-10.3-10.78-19.37-7.33s-20.21,20.95-20.21,20.95,15.94,7.26,27.44,5.12S594,315.93,592.77,310.63Z"/><path class="cls-4" d="M530,331.7s43.65-14.08,54.8-17.69"/><polyline class="cls-4" points="578.72 309.68 572.58 312.34 563.53 320.9"/><line class="cls-4" x1="574.71" y1="307.97" x2="572.58" y2="312.34"/><path class="cls-4" d="M575,317.17s2.78,2.37,10,3.61"/><polygon class="cls-8" points="134.25 349.84 134.25 69.57 182.42 55.41 182.42 135.37 227.13 135.37 227.13 192.82 239.77 192.82 239.77 122.19 268.75 131.11 268.75 157.79 298.87 157.79 298.87 349.84 134.25 349.84"/><path class="cls-9" d="M331.5,354.42V170h12.36V126.75h21.61v60h10.7V142.07s25.8,5.29,30.5,25.65v37.36h15.05V148.72h32.14v24.85h55v24.51L547,231.85V354.42Z"/><path class="cls-10" d="M547.08,306a123.92,123.92,0,0,0-.71-29.15c-4.25-26.41,10.83-55.57,36.74-37.11,15.18,10.81,14.59,34.13.33,49C570.75,302,547.08,306,547.08,306Z"/><path class="cls-4" d="M575.23,253.46s-21.11,38.21-35,65.81"/><polyline class="cls-4" points="553.57 258.73 555.03 271.92 559.13 263.76"/><line class="cls-4" x1="555.03" y1="271.92" x2="552.46" y2="295.67"/><polyline class="cls-4" points="558.07 285.1 569.42 275.59 578.38 274.58"/><line class="cls-4" x1="572.44" y1="270.02" x2="569.42" y2="275.59"/><line class="cls-4" x1="569.74" y1="243.99" x2="568.04" y2="266.6"/><path class="cls-11" d="M442.58,354.74H564.37s-.75-34.42-24.5-22.42c2.25-21.75,2-45.7-11.75-17.1,3-24.4,5.32-76.68-16-16.15,0,0,17.52-67,6.25-70.71-10.75-3.49-27.58,63.21-27.58,63.21s2.31-42.61-10.68-42C467.57,250.17,442.58,354.74,442.58,354.74Z"/><path class="cls-12" d="M515.76,302c-10.84-8.38-20.3,6.6-20.3,6.6l-1.28-29.46c-2.09,7.33-3.39,12.46-3.39,12.46s2.31-42.61-10.68-42c-12.54.59-37.53,105.16-37.53,105.16h87.06C529.26,348.58,526.43,310.22,515.76,302Z"/><path class="cls-13" d="M71.45,354.25H295s-2.58-163.16-7.8-162.92S259.86,330,259.86,330s-17.07-57.86-26.24-56.31-11.45,30.94-11.45,30.94S209.58,162.33,171,162.33c-10.07,0-31.38,79.38-31.38,79.38s-2.57-57.09-8.69-56.31-12.25,59.1-12.25,59.1-8.25-24.83-16.25-24.92,3,89,3,89-6-25.32-13.5-25.16-3,47.86-3,47.86S71.45,337.42,71.45,354.25Z"/><path class="cls-14" d="M295,354.25s-2.58-163.16-7.8-162.92S259.86,330,259.86,330,246.6,285,237.18,275.42c-11.12,35.61-20,69.48-22.34,78.83Z"/><path class="cls-15" d="M230.22,354.74H526.28S507,295.41,490,318.07c-1-44-14.6-64.65-29.14-34.66-4.55-52.67-14.05-102.49-62.3-78.58-1.58-40.09-32.71-68.62-59.71,17,0,0,3.57-16.22-2.48-17s-11,31.83-11,31.83,1.3-34.41-13.56-29.17-38.74,93-38.74,93,4.43-54.61-7.18-57S230.22,354.74,230.22,354.74Z"/><rect class="cls-16" x="317.4" y="101.61" width="9.78" height="253.13"/><polygon class="cls-17" points="317.4 138.02 327.18 127.41 327.18 101.61 317.4 101.61 317.4 138.02"/><rect class="cls-18" x="251.54" y="42.64" width="141.5" height="65.11"/><rect class="cls-19" x="254.93" y="42.64" width="138.11" height="61.16"/><text class="cls-20" transform="translate(270.81 92.96)">404</text><g class="cls-21"><path class="cls-22" d="M193.34,110.65l-14.06-8.29a26.52,26.52,0,1,0-2.33,8.93Z"/></g><path class="cls-16" d="M193.34,107.37l-14.06-8.29A26.52,26.52,0,1,0,177,108Z"/><path class="cls-23" d="M148.75,103.61v-1.48a6.46,6.46,0,0,1,.82-3.32,10.7,10.7,0,0,1,3-3,12.72,12.72,0,0,0,2.76-2.42,3.55,3.55,0,0,0,.66-2.09,2.24,2.24,0,0,0-.95-2,4.51,4.51,0,0,0-2.67-.68,15.34,15.34,0,0,0-6.81,2l-2.16-4.36a18.9,18.9,0,0,1,9.41-2.49,10.06,10.06,0,0,1,6.52,2A6.45,6.45,0,0,1,161.72,91a7,7,0,0,1-1,3.78A14,14,0,0,1,157,98.33a11.54,11.54,0,0,0-2.42,2.15,3.33,3.33,0,0,0-.51,1.93v1.2Zm-.64,6.8a3.35,3.35,0,0,1,.9-2.53,3.63,3.63,0,0,1,2.61-.85,3.52,3.52,0,0,1,2.55.87,3.86,3.86,0,0,1,0,5,3.48,3.48,0,0,1-2.54.91,3.57,3.57,0,0,1-2.59-.89A3.31,3.31,0,0,1,148.11,110.41Z"/><path class="cls-24" d="M532.11,155.77H489.05a6.52,6.52,0,0,0-6.53,6.52v11.57a6.12,6.12,0,0,1-1.54,4l-10.79,12.14a.14.14,0,0,0,.16.22l10.16-4.35a1.44,1.44,0,0,1,2,1.32h0a6.53,6.53,0,0,0,6.53,6.53h43.06a6.52,6.52,0,0,0,6.52-6.53v-25A6.52,6.52,0,0,0,532.11,155.77Z"/><path class="cls-16" d="M528.63,153.37H485.57a6.52,6.52,0,0,0-6.52,6.53v11.56a6.08,6.08,0,0,1-1.54,4l-10.79,12.15a.14.14,0,0,0,.16.22L477,183.52a1.44,1.44,0,0,1,2,1.33h0a6.52,6.52,0,0,0,6.52,6.52h43.06a6.52,6.52,0,0,0,6.53-6.52V159.9A6.53,6.53,0,0,0,528.63,153.37Z"/><circle class="cls-25" cx="491.84" cy="172.37" r="2.39"/><circle class="cls-25" cx="502" cy="172.37" r="2.39"/><circle class="cls-25" cx="512.15" cy="172.37" r="2.39"/><path class="cls-25" d="M524.7,172.37a2.4,2.4,0,1,1-2.4-2.39A2.39,2.39,0,0,1,524.7,172.37Z"/><ellipse class="cls-2" cx="153.65" cy="361.23" rx="45.14" ry="2.04"/><rect class="cls-16" x="181.04" y="203.14" width="4.6" height="77.25" transform="translate(366.67 483.54) rotate(180)"/><rect class="cls-16" x="145.17" y="203.14" width="4.6" height="77.25" transform="translate(294.93 483.54) rotate(180)"/><path class="cls-26" d="M181,203.14h4.59v11.42l-4.59-.49Zm-35.87,7.05,4.6.5v-7.55h-4.6Z"/><path class="cls-27" d="M145.29,197.39h40.22a2.27,2.27,0,0,1,2.25,2.29v3.17a2.27,2.27,0,0,1-2.25,2.29h-6.83a12.29,12.29,0,0,1-6.25-1.55,15.31,15.31,0,0,0-14.06,0,12.26,12.26,0,0,1-6.25,1.55h-6.83a2.27,2.27,0,0,1-2.25-2.29v-3.17A2.27,2.27,0,0,1,145.29,197.39Z"/><rect class="cls-28" x="134.28" y="250.85" width="60.09" height="102.29" rx="5.58" transform="translate(328.65 604) rotate(180)"/><line class="cls-29" x1="184.65" y1="250.85" x2="184.65" y2="353.14"/><rect class="cls-30" x="112.92" y="250.85" width="60.09" height="102.29" rx="5.58" transform="translate(285.93 604) rotate(180)"/><line class="cls-31" x1="183.96" y1="250.85" x2="183.96" y2="353.14"/><rect class="cls-32" x="180.03" y="280.02" width="7.86" height="3.51" transform="translate(367.91 563.55) rotate(180)"/><rect class="cls-33" x="180.03" y="323.98" width="7.86" height="3.51" transform="translate(367.91 651.46) rotate(180)"/><rect class="cls-16" x="180.03" y="278.26" width="7.86" height="3.51" transform="translate(367.91 560.04) rotate(180)"/><rect class="cls-16" x="180.03" y="322.22" width="7.86" height="3.51" transform="translate(367.91 647.95) rotate(180)"/><g class="cls-34"><path class="cls-35" d="M162.3,345.06h0a2,2,0,0,0,2-2V262a2,2,0,0,0-2-2h0a2,2,0,0,0-2,2v81.1A2,2,0,0,0,162.3,345.06Z"/><path class="cls-36" d="M149.41,345.06h0a2,2,0,0,0,2-2V262a2,2,0,0,0-2-2h0a2,2,0,0,0-2,2v81.1A2,2,0,0,0,149.41,345.06Z"/><path class="cls-37" d="M136.52,345.06h0a2,2,0,0,0,2-2V262a2,2,0,0,0-2-2h0a2,2,0,0,0-2,2v81.1A2,2,0,0,0,136.52,345.06Z"/><path class="cls-38" d="M123.63,345.06h0a2,2,0,0,0,2-2V262a2,2,0,0,0-2-2h0a2,2,0,0,0-2,2v81.1A2,2,0,0,0,123.63,345.06Z"/></g><circle class="cls-39" cx="140.68" cy="357.66" r="4.08"/><path class="cls-39" d="M116.44,357.66a4.08,4.08,0,1,0,4.08-4.08A4.09,4.09,0,0,0,116.44,357.66Z"/><rect class="cls-39" x="120.52" y="352.98" width="66.06" height="2.67" transform="translate(307.1 708.62) rotate(180)"/><path class="cls-40" d="M118.5,250.85h70.29L173,258.21l-60.09,42.28V256.43A5.58,5.58,0,0,1,118.5,250.85Z"/><path class="cls-41" d="M182.46,357.66a4.08,4.08,0,1,0,4.08-4.08A4.09,4.09,0,0,0,182.46,357.66Z"/><circle class="cls-41" cx="166.38" cy="357.66" r="4.08"/><circle class="cls-42" cx="166.38" cy="357.23" r="1.58"/><path class="cls-42" d="M185,357.23a1.59,1.59,0,1,0,1.58-1.59A1.58,1.58,0,0,0,185,357.23Z"/><path class="cls-43" d="M119.7,144.48H32.93c-12.74,0-7-5.42,0-6.78,2.24-.43,4.42-.94,6.36-1.44a12.74,12.74,0,0,0,8.5-7,12.41,12.41,0,0,1,7.62-7,16.48,16.48,0,0,1,10.53.09,3.55,3.55,0,0,0,4.7-2.76c1.28-7.65,5-21.71,15.56-21.71,9.74,0,15.36,15.16,18,25a19,19,0,0,0,11.48,12.85c1.3.5,2.65,1,4,1.39C125.61,139,127.91,144.48,119.7,144.48Z"/><path class="cls-43" d="M424.4,116.63H494c12.28,0,7.47-5.59,3.74-7-2.09-.8-7.08-2.25-11.09-3.37a11,11,0,0,1-7.17-6.21c-2.31-5.39-8.06-13.42-21.65-12.09a7.54,7.54,0,0,1-6.35-2.56c-3.33-3.72-9.78-9.06-17.8-6.25-8.88,3.12-10.72,16.89-11.08,23.53a5.14,5.14,0,0,1-3.32,4.53c-2.31.87-5.09,2.43-5.54,5C412.91,116.63,419.13,116.63,424.4,116.63Z"/><polygon class="cls-18" points="351.12 3.7 356.24 2.7 352.69 5.89 351.12 3.7"/><path class="cls-28" d="M341.51,16.51a4.78,4.78,0,0,0,1-3.46c-.38-3.73-.59-11.44,4-12.85,6.13-1.88,7.25,10,7.75,15.5s15.63,24.5-24,24.25C330.24,40,335.4,24.24,341.51,16.51Z"/><path class="cls-27" d="M348.27,4.9a1,1,0,1,1-1-1A1,1,0,0,1,348.27,4.9Z"/><path class="cls-44" d="M342.42,14.45S355.26,34,330.93,38"/><path class="cls-44" d="M341.2,16.91s6,13.47-9.7,19.49"/><line class="cls-45" x1="343.93" y1="38.52" x2="343.37" y2="42.64"/><line class="cls-45" x1="348.37" y1="37.29" x2="347.64" y2="42.64"/><path class="cls-46" d="M330.93,42.64s22.94,13.43,28.44,11.77-3.84-11.77-3.84-11.77Z"/><ellipse class="cls-2" cx="215.71" cy="369.82" rx="18.91" ry="3.75"/><ellipse class="cls-2" cx="280.95" cy="369.82" rx="18.91" ry="3.75"/><path class="cls-47" d="M254.9,257.42l16.67,101.75s3.33,1.25,5.9,0c0,0,7.06-57.25,1.06-77.5l-1.06-24.25Z"/><polygon class="cls-48" points="277.47 257.42 254.9 257.42 255.78 262.78 277.93 268 277.47 257.42"/><path class="cls-49" d="M268.18,288.5s2.06,1.67,6.79-2"/><path class="cls-47" d="M241.53,257.42l-29,102.3H207s-3.16-53.89,7.67-78.05l4.42-24.25Z"/><path class="cls-27" d="M271.57,359.17s-2.36,2.05-3,6.75a2.18,2.18,0,0,0,2.12,2.45c2.47.05,6.36.16,8.67.38,3.2.3,4.81,1.86,12.21,1.17a1,1,0,0,0,.42-1.84l-14.53-8.91Z"/><path class="cls-27" d="M206.92,359.17s-2.37,2.05-3,6.75a2.18,2.18,0,0,0,2.13,2.45c2.46.05,6.35.16,8.66.38,3.21.3,4.81,1.86,12.21,1.17a1,1,0,0,0,.43-1.84l-14.54-8.91Z"/><path class="cls-49" d="M220.91,283.29s2.25,3.54,7.87,3.21"/><polygon class="cls-50" points="238.92 266.63 241.53 257.42 219.12 257.42 218.09 263.1 238.92 266.63"/><path class="cls-51" d="M271.7,208.17s4,4.5,3.17,21c0,0,4.69,18.33,5.1,31.16h-27.6L249,240.83l-5.5,19.5H214.7l6.17-37.66s-1.34-10.67,4.66-17.84Z"/><path class="cls-52" d="M273.85,260.33l-21.32-31.66c-1.37,8.75-3.5,12.16-3.5,12.16l3.34,19.5Z"/><path class="cls-53" d="M236.3,205.61s-.47,12.06-15.43,17.06"/><path class="cls-53" d="M268.19,207.91s-.62,10.5,6.78,15.5"/><path class="cls-53" d="M271.91,226.11a7.42,7.42,0,0,1,3,3.06"/><path class="cls-53" d="M230.87,225.15s-6.42,1.1-9.25,4"/><line class="cls-53" x1="230.87" y1="228.67" x2="219.12" y2="233.32"/><path class="cls-53" d="M252.62,215.08s1.91,15.42-3.59,25.75"/><path class="cls-53" d="M256.7,214.58s2.83,12.34-4.17,14.09"/><path class="cls-54" d="M260.53,223.41c8.91-1.48,12.35-5.69,13.66-8.38-1-5.15-2.49-6.86-2.49-6.86l-46.17-3.34a19.42,19.42,0,0,0-3.55,6.7l6.6-3.11S247,225.67,260.53,223.41Z"/><path class="cls-47" d="M296.86,227.23s.2,3.52-.33,3.52-.72-3.27-.72-3.27l-.46.11s-.61,4-1.23,4.28-.09-3.54-.09-3.54-1.41,3-1.81,2.79.58-2.91.58-2.91-1.68,2.41-2,2.29.85-2,.85-2l.59-10.07,2.4,1.37Z"/><polygon class="cls-27" points="299.67 227.45 284.77 231.03 284.77 223.87 299.67 220.29 299.67 227.45"/><polygon class="cls-28" points="298.44 227.05 285.74 230.1 285.74 224.59 298.44 221.53 298.44 227.05"/><path class="cls-47" d="M294.1,221.42a.66.66,0,0,1,.16.17l2.25-.54a23.67,23.67,0,0,0-.6-2.88c-8.75-26.75-19-43.25-19-43.25L274.66,170H258.41s16.1,28.19,32.24,47.1a2,2,0,0,1,.44,1.73,41.75,41.75,0,0,0-.93,6.42c-.06,2.69,1.31-2,1.87-3.06S293.48,220.88,294.1,221.42Z"/><path class="cls-55" d="M274.66,170H258.41s7.17,12.55,16.73,26.51C270,177.7,280,180.32,280,180.33c-1.89-3.53-3.06-5.41-3.06-5.41Z"/><path class="cls-28" d="M245.66,131.11c10.12,0,16.87,6.81,18.37,13.93l15.5,26.75H257.41Z"/><path class="cls-56" d="M276.93,167.3h0L264,145c-1.5-7.12-8.25-13.93-18.37-13.93l11.75,40.68h10C267.37,150.75,276.93,167.3,276.93,167.3Z"/><path class="cls-28" d="M207.37,145l9.1-10.75a8.35,8.35,0,0,1,6.26-3c6.15-.1,18-.27,21.8-.27,11.5,0,15.67,13.61,18,22.72s9.11,47.59,9.11,47.59,8.79,14.71-8.95,14.71-34.11-10.25-34.11-10.25-5.1,2.61-5.5,2.12,1.22-6,1.22-6l-5.89-31.13h-7.83S196.12,168.45,207.37,145Z"/><path class="cls-57" d="M218.36,170.86c5.76.39,11.26-6.53,10.17-13.07"/><path class="cls-57" d="M221,132.36A16.76,16.76,0,0,1,229.28,145"/><path class="cls-47" d="M221,112.4s.66,3.74-1.46,5c-.69,2.19-7,29.85-7,29.85s3.23,11.21-1.34,22c0,0-17.34,5.4-21.46-4S207.87,122.2,217,114.59c0,0-1.37-5.61-.87-6.8s6.5-5.25,6.5-5.25Z"/><path class="cls-47" d="M232.87,102.75l7.25,5.33-1.42,1.11s4.42,4.56,3.42,6.06a20.81,20.81,0,0,1-2.59,3L242,131.58a3.21,3.21,0,0,1-4.21,3.61l-11.87-4.13.88-9.72s-3.56-10.09-3.73-13.26S228.37,100.67,232.87,102.75Z"/><path class="cls-58" d="M228,115.33s6.21,5.5,11.58,2.92l1.34,8.5s-8.4-1.89-13.3-9.11Z"/><path class="cls-59" d="M206.56,162.23c1.41.6,4.53-1.47,7-3.36a37.46,37.46,0,0,0-1-11.59C210.68,155.39,204.08,161.17,206.56,162.23Z"/><path class="cls-27" d="M227.87,108s6.16-2.83,9.41-6.17.57-6.47-4.7-4.83c-3,.92-12.3,4.08-11.63,8.75-3.67.92-2.92,4.42-1,6.67s6.33,5.91,6.92,9.41l1.08-6.5s-2.67-1.58-2.33-3.25,2.65-1.25,2.91.25Z"/><path class="cls-60" d="M229.28,175.07c2-7.16,2.88-13-.7-14.24-.92,10-10,10-10,10l-.15.44L224.25,202c5.25-1.42,3.91-4.92,5.55-9.08S227.33,182.24,229.28,175.07Z"/><polygon class="cls-61" points="367.01 380.57 356.99 380.57 317.4 354.74 327.42 354.74 367.01 380.57"/><path class="cls-2" d="M505.91,361.25c0,1.35-34,2.45-76,2.45s-76-1.1-76-2.45,34-2.46,76-2.46S505.91,359.89,505.91,361.25Z"/><rect class="cls-16" x="370.03" y="203.08" width="2.88" height="77.25"/><rect class="cls-16" x="390.81" y="203.08" width="2.88" height="77.25"/><rect class="cls-62" x="361.25" y="276.58" width="44.94" height="76.5" rx="4.17"/><line class="cls-63" x1="368.41" y1="276.58" x2="368.41" y2="353.08"/><g class="cls-64"><rect class="cls-65" x="366.1" y="298.39" width="5.87" height="2.63"/><rect class="cls-66" x="366.1" y="331.27" width="5.87" height="2.63"/></g><rect class="cls-67" x="377.22" y="276.58" width="44.94" height="76.5" rx="4.17"/><line class="cls-68" x1="369.04" y1="276.58" x2="369.04" y2="353.08"/><rect class="cls-16" x="366.1" y="297.08" width="5.87" height="2.63"/><rect class="cls-16" x="366.1" y="329.96" width="5.87" height="2.63"/><g class="cls-69"><path class="cls-70" d="M385.23,347h0a1.48,1.48,0,0,1-1.48-1.48V284.9a1.49,1.49,0,0,1,1.48-1.49h0a1.49,1.49,0,0,1,1.49,1.49v60.65A1.49,1.49,0,0,1,385.23,347Z"/><path class="cls-71" d="M394.87,347h0a1.48,1.48,0,0,1-1.48-1.48V284.9a1.49,1.49,0,0,1,1.48-1.49h0a1.49,1.49,0,0,1,1.49,1.49v60.65A1.49,1.49,0,0,1,394.87,347Z"/><path class="cls-72" d="M404.51,347h0a1.48,1.48,0,0,1-1.48-1.48V284.9a1.49,1.49,0,0,1,1.48-1.49h0A1.49,1.49,0,0,1,406,284.9v60.65A1.49,1.49,0,0,1,404.51,347Z"/><path class="cls-73" d="M414.15,347h0a1.48,1.48,0,0,1-1.48-1.48V284.9a1.49,1.49,0,0,1,1.48-1.49h0a1.49,1.49,0,0,1,1.49,1.49v60.65A1.49,1.49,0,0,1,414.15,347Z"/></g><path class="cls-39" d="M407.86,357.16a4.09,4.09,0,1,1-4.09-4.08A4.09,4.09,0,0,1,407.86,357.16Z"/><path class="cls-39" d="M421.41,357.16a4.09,4.09,0,1,1-4.08-4.08A4.09,4.09,0,0,1,421.41,357.16Z"/><rect class="cls-39" x="369.04" y="352.91" width="48.29" height="2.67"/><path class="cls-74" d="M418,276.58H365.42l11.8,5.5,44.94,31.63v-33A4.17,4.17,0,0,0,418,276.58Z"/><path class="cls-41" d="M373.16,357.16a4.08,4.08,0,1,1-4.08-4.08A4.09,4.09,0,0,1,373.16,357.16Z"/><path class="cls-41" d="M386.72,357.16a4.09,4.09,0,1,1-4.09-4.08A4.09,4.09,0,0,1,386.72,357.16Z"/><path class="cls-42" d="M384.22,357.16a1.59,1.59,0,1,1-1.59-1.58A1.59,1.59,0,0,1,384.22,357.16Z"/><path class="cls-42" d="M370.62,357.16a1.59,1.59,0,1,1-1.58-1.58A1.59,1.59,0,0,1,370.62,357.16Z"/><g class="cls-75"><polygon class="cls-76" points="372.91 209.45 372.91 203.08 370.02 203.08 370.02 208.65 372.91 209.45"/><polygon class="cls-77" points="393.69 203.08 390.81 203.08 390.81 214.44 393.69 215.24 393.69 203.08"/></g><path class="cls-62" d="M394.45,200.33H369.27a1.41,1.41,0,0,0-1.41,1.41v1.93a1.41,1.41,0,0,0,1.41,1.41h4.27a7.84,7.84,0,0,0,3.92-1,9.74,9.74,0,0,1,8.8,0,7.82,7.82,0,0,0,3.92,1h4.27a1.41,1.41,0,0,0,1.41-1.41v-1.93A1.41,1.41,0,0,0,394.45,200.33Z"/><polygon class="cls-27" points="414.34 248.03 425.54 252.51 404.88 255.61 405.33 248.95 414.34 248.03"/><path class="cls-47" d="M456.58,263.79s9.28-.85,10.83,4.83c3.5,12.83,18,82.08,18,82.08s5.17,5.75,10,7.75,8.14,1.56,6,3S485.66,360,485.66,360l-6.36.5,1.11-7.25a214.13,214.13,0,0,0-10-24.75c-5.5-11-15.85-38.5-16.17-46.25S456.58,263.79,456.58,263.79Z"/><path class="cls-78" d="M476.57,309.12c-3.73-17.29-7.57-34.68-9.16-40.5s-10.83-4.83-10.83-4.83-2.67,10.66-2.34,18.41c.12,3,1.75,9,4,15.78A56.88,56.88,0,0,1,476.57,309.12Z"/><path class="cls-25" d="M462.41,210.87s1.53,0,1.43,1.08-.26,7.09-1.43,7.76-3.75,1.74-3.75,1.74,2.39,32.31-3.42,36.82c-4.54,3.52-10-1.15-12.24-4.23-2.55-3.44-13.59-19.5-13.59-19.5l10.92-8.92L451.58,245s2.79-24.4,4.2-26.15a11.55,11.55,0,0,1,3.63-2.77S461.66,211,462.41,210.87Z"/><path class="cls-79" d="M462.41,210.87s1.53,0,1.43,1.08-.26,7.09-1.43,7.76-3.75,1.74-3.75,1.74,2.39,32.31-3.42,36.82c-4.54,3.52-10-1.15-12.24-4.23-2.55-3.44-13.59-19.5-13.59-19.5l10.92-8.92L451.58,245s2.79-24.4,4.2-26.15a11.55,11.55,0,0,1,3.63-2.77S461.66,211,462.41,210.87Z"/><path class="cls-47" d="M419.78,251.45c8.26,1.38,37.62,7.32,41.63,11.66,7,7.59.25,18.72-5.25,28.09s-23.75,48.63-23.75,48.63l-1.12,19.37s3.37,2,1.87,2.25-4.87-1.25-5.75-3-.62-9.87-1.75-12.25a61.11,61.11,0,0,1-2.37-6.5l4.62-3.37s3.75-14.38,5.5-26.75,6.5-27.34,9.63-29.61H402.16l1.54-21.14Z"/><path class="cls-80" d="M403.7,258.83,402.16,280h12.89c3.48-13.57,12.6-22.36,17.22-26.08-5.28-1.13-9.92-2-12.49-2.44Z"/><path class="cls-28" d="M378.41,245.79s-12,21.57,7.84,32.33c4,2.17,15.66,1.83,23.33,1.83,0,0-2.31-24.62,10.2-28.5l-21-3.75Z"/><path class="cls-57" d="M414.34,250.48C408,254,404.51,262.29,406.16,280"/><path class="cls-81" d="M412.5,250.16l-13.71-2.46-20.38-1.91a33.07,33.07,0,0,0-3.53,12.12C386.57,251.18,412.5,250.16,412.5,250.16Z"/><path class="cls-27" d="M480.41,353.2l-1.11,7.25,6.36-.5s13.5,3,15.68,1.53-1.18-1-6-3-10-7.75-10-7.75C482.41,354.45,480.41,353.2,480.41,353.2Z"/><path class="cls-27" d="M427.91,336.33l-4.62,3.37a61.11,61.11,0,0,0,2.37,6.5c1.13,2.38.88,10.5,1.75,12.25s4.25,3.25,5.75,3-1.87-2.25-1.87-2.25l1.12-19.37C427.59,339.55,427.91,336.33,427.91,336.33Z"/><path class="cls-47" d="M463.76,200.83c.05,2.8-1.85,6-.66,6.81s-1.38,9.63-3.06,10.19-4.19-1-8.44,0a83.14,83.14,0,0,0-10.44,3.62l-6.25-9.92s10.94-.08,12-1.83,4.75-11.5,4.75-11.5S463.66,196.21,463.76,200.83Z"/><path class="cls-82" d="M451.86,208.82l-3.2.8-3,10.09a54.55,54.55,0,0,1,6-1.88,12.5,12.5,0,0,1,4.18-.28h0C451.65,216.51,449.82,210.72,451.86,208.82Z"/><path class="cls-27" d="M458,192c-7-2.1-12.59.33-14.72,5.07-3.23,7.23,3.18,14.18,3.18,14.18a3.24,3.24,0,0,0,3-.34,27,27,0,0,0,2.32-2.13,2.45,2.45,0,0,1-1.07-.53c-.85-.77.62-5,2-4.67.93.19,1.2,1.67,1.27,2.66a22.69,22.69,0,0,0,2.62-4.14s3,.63,4.5-1.58l2.54.27A7.75,7.75,0,0,0,458,192Z"/><path class="cls-27" d="M447.07,193.2c0,3.28-3,5.93-6.61,5.93s-6.62-2.65-6.62-5.93,3-5.93,6.62-5.93S447.07,189.93,447.07,193.2Z"/><path class="cls-83" d="M436.85,210s9.93,10.31,8.78,12.37-5.91,5.94-5.91,5.94-2.18,6.56-5.37,8.56-11.56,2.38-15.44,2.44-5.25,5-5.25,5,4.86,5.19,1.88,5.19H383.16c-7.5,0-9.11-6.67-4.75-7.94,3-.88,12.07-13.5,22.25-22.29C413.79,208,430.75,209.75,433,210S436.09,209.21,436.85,210Z"/><path class="cls-27" d="M493.31,232l-4.94-1.13a.45.45,0,0,1-.27-.7l9.07-13.08a.66.66,0,0,1,.71-.27l4.33,1a.57.57,0,0,1,.34.88Z"/><path class="cls-28" d="M493,229.72l-3.24-.72a.24.24,0,0,1-.14-.36l7.5-10.87a.42.42,0,0,1,.44-.17l3.44.77a.25.25,0,0,1,.15.38l-7.36,10.67A.75.75,0,0,1,493,229.72Z"/><path class="cls-84" d="M451.14,266s.72,5.94,5.79,6.84"/><path class="cls-47" d="M428.5,231.2s-14.67,5.67-17.17,0,11.35-16.94,21.67-16.94c8.08,0,11.16,10.61,11.16,10.61l17,27.25L490.22,236l-.64-4.89,3.75.82s1.17-3.08,2.75-4.08c0,0,0-3.67.42-3.75s1.33,3.42.75,5.33-3.17,5.92-5.09,8.59S467.47,265.33,456.47,263C448.86,261.31,428.5,231.2,428.5,231.2Z"/><path class="cls-85" d="M411.06,230.1a3.35,3.35,0,0,0,.27,1.1c2.5,5.67,17.17,0,17.17,0C426.41,228,415.2,223.62,411.06,230.1Z"/><path class="cls-84" d="M449.79,258.21s8.31,1.87,11.17,4.49"/></g></g></svg>